<svg id="Layer_1" xmlns="http://www.w3.org/2000/svg" viewBox="0 0 205 15"><style>.st0{enable-background:new}.st1{fill:#535656}</style><title>Constellation</title><g id="Design"><g id="_x32_00_x5F_City-Landing"><g class="st0"><path class="st1" d="M51.9 36.8v.2c-.1.2-.2.5-.5.5h-1.1c-.3 0-.4-.2-.5-.4-.2-.5-.3-.9-.6-1.3-.6-.8-1.6-1.3-2.7-1.3-1.8 0-3.3 1.5-3.3 3.3v3c0 1.8 1.5 3.3 3.3 3.3 1.1 0 2-.5 2.7-1.4.3-.5.5-.9.6-1.5.1-.3.2-.5.5-.5h1.1c.3 0 .5.3.5.5 0 .3-.1.7-.2 1.1-.8 2.2-3 3.8-5.3 3.8-3 0-5.5-2.5-5.5-5.5v-3c0-3 2.5-5.5 5.5-5.5 2.8.1 5 2 5.5 4.7zm18.6 3.7c0 3.1-2.7 5.6-5.9 5.6s-5.9-2.5-5.9-5.6v-2.7c0-3.1 2.7-5.6 6-5.6s5.9 2.5 5.9 5.6v2.7zm-2.3-2.7c0-1.9-1.6-3.5-3.6-3.5s-3.7 1.6-3.7 3.5v2.7c0 1.9 1.6 3.5 3.7 3.5 2 0 3.6-1.6 3.6-3.5v-2.7zm19.5 7.7c0 .3-.2.5-.6.5H86c-.2 0-.4-.1-.5-.3-2-3-3.8-5.7-5.9-8.8v8.5c0 .3-.2.5-.6.5h-1.2c-.3 0-.5-.3-.5-.5V32.9c0-.3.2-.5.5-.5h1.3c.2 0 .4.1.5.3l5.8 8.8V33c0-.3.2-.5.6-.5h1.2c.3 0 .6.3.6.5v12.5zm15.4-.3c-.8.7-1.9 1-3.1 1h-1.3c-1.5 0-2.8-.7-3.5-1.9-.3-.4-.4-.7-.5-1.1-.1-.7-.1-1-.1-1.4 0-.3 0-.7.5-.7h1.2c.3 0 .4.1.5.4.1.2.1.3.1.5v.5c.2.8 1 1.4 1.8 1.4h1.3c1 0 1.9-.6 2.1-1.5v-.3c0-.2 0-.7-.3-1-.5-.4-1.5-.6-2.7-.9-2.2-.5-4.5-1.2-4.5-3.4v-.2c0-.4 0-.7.1-1.2.4-1.9 2.1-3.3 4-3.3h1.3c1 0 2 .4 2.8 1 .8.6 1.2 1.8 1.2 3.1 0 .3 0 .7-.5.7h-1.1c-.3 0-.5-.3-.5-.5-.1-1.4-.6-2-1.7-2h-1.3c-.9 0-1.7.6-1.9 1.5-.1.3-.2.8.3 1.2.2.2.5.4.7.4l2 .5c1 .3 1.8.5 2.2.6.5.2.9.4 1.2.6.7.5 1.2 1.3 1.2 2.4-.2 1.5-.7 2.9-1.5 3.6zm13.6-10.6v10.7c0 .3 0 .7-.5.7H115c-.5 0-.5-.3-.5-.7V34.6h-3.3c-.6 0-.7-.1-.7-.7V33c0-.3 0-.7.5-.7h9.1c.5 0 .6.3.6.7v.9c0 .5-.1.7-.7.7h-3.3zM127.6 46c-.3 0-.5-.2-.5-.5V33c0-.3.3-.5.6-.5h8.2c.6 0 .6.3.6.7v.8c0 .6-.1.7-.7.7h-6.4v3h5.7c.3 0 .5.2.5.6v1.2c0 .3-.2.6-.5.6h-5.7v3.8h6.6c.6 0 .7.1.7.7v.9c0 .3 0 .7-.6.7h-8.5zm16.3 0c-.3 0-.5-.2-.5-.5V33c0-.4.2-.5.5-.5h1.2c.5 0 .5.3.5.7v10.7h5.6c.6 0 .7.1.7.7v.9c0 .3 0 .7-.5.7h-7.5zm15.2 0c-.3 0-.5-.2-.5-.5V33c0-.4.2-.5.5-.5h1.2c.5 0 .5.3.5.7v10.7h5.6c.6 0 .7.1.7.7v.9c0 .3 0 .7-.5.7h-7.5zm24.6 0h-1.2c-.4 0-.4-.2-.5-.4l-1.5-4.5-4.2 1.9-.9 2.6c-.1.3-.2.4-.6.4h-1.2c-.3 0-.6-.2-.6-.5 0-.1 3.9-11.5 4.3-12.6.1-.3.2-.4.5-.4h1.5c.3 0 .4.2.5.4l4.4 12.4v.2c.1.3-.1.5-.5.5zm-4.1-7.2c-.2-.5-.3-.9-.4-1.1-.1-.2-.1-.3-.2-.5-.1-.3-.2-.7-.4-1.2l-1.4 3.9 2.4-1.1zm16.5-4.2v10.7c0 .3 0 .7-.5.7h-1.2c-.5 0-.5-.3-.5-.7V34.6h-3.3c-.6 0-.7-.1-.7-.7V33c0-.3 0-.7.5-.7h9.1c.5 0 .6.3.6.7v.9c0 .5-.1.7-.7.7h-3.3zm12.6 10.9c0 .3-.2.5-.6.5h-1.2c-.3 0-.5-.3-.5-.5V33c0-.3.2-.5.5-.5h1.2c.3 0 .6.3.6.5v12.5zm18.7-5c0 3.1-2.7 5.6-5.9 5.6s-6-2.5-6-5.6v-2.7c0-3.1 2.7-5.6 6-5.6s5.9 2.5 5.9 5.6v2.7zm-2.3-2.7c0-1.9-1.6-3.5-3.6-3.5s-3.7 1.6-3.7 3.5v2.7c0 1.9 1.6 3.5 3.7 3.5 2 0 3.6-1.6 3.6-3.5v-2.7z" transform="translate(-40 -32)"/></g><g class="st0"><path class="st1" d="M244.6 45.5c0 .3-.2.5-.6.5h-1.2c-.2 0-.4-.1-.5-.3-2-3-3.8-5.7-5.9-8.8v8.5c0 .3-.2.5-.6.5h-1.2c-.3 0-.5-.3-.5-.5V32.9c0-.3.2-.5.5-.5h1.3c.2 0 .4.1.5.3l5.8 8.8V33c0-.3.2-.5.6-.5h1.2c.3 0 .6.3.6.5v12.5z" transform="translate(-40 -32)"/></g></g></g></svg>