<svg width="32" height="32" viewBox="0 0 32 32" xmlns="http://www.w3.org/2000/svg"><title>Combined Shape</title><path d="M16 0c8.837 0 16 7.163 16 16s-7.163 16-16 16S0 24.837 0 16 7.163 0 16 0zm3.296 25.083l-.002-4.237c0-.479-.264-1.521-.605-1.817 2.646-.298 4.845-1.816 4.845-4.844 0-3.028-.607-3.635-1.211-4.24.122-.298.629-1.402-.019-3.027 0 0-1.193 0-2.404 1.816-.6-.6-2.423-.605-3.027-.605-.607 0-2.429.005-3.029.605-1.211-1.816-2.401-1.816-2.401-1.816-.648 1.625-.14 2.729-.018 3.027-.606.607-1.214 1.212-1.214 4.24 0 3.028 2.201 4.547 4.846 4.844-.34.296-.604 1.212-.604 1.817-.68.302-2.57.593-3.633-1.212 0 0-.606-1.211-1.817-1.211 0 0-1.212-.114 0 .605 0 0 .607.605 1.211 1.817 0 0 .925 2.53 4.24 1.816.007.985 0 2.422 0 2.422h4.842z" fill="#453E60"/></svg>