<svg xmlns="http://www.w3.org/2000/svg"><symbol id="shape-arrow-right" viewBox="0 0 40 33"><title>Shape</title><path d="M1.982 14.074h30.899L22.247 3.44A1.983 1.983 0 0 1 25.05.636l14.017 14.018c.092.092.174.194.247.302.033.05.056.104.084.156.034.062.07.12.098.185.027.067.043.137.063.206.016.055.038.108.049.164a1.973 1.973 0 0 1 0 .777c-.011.06-.034.115-.051.173-.02.065-.035.132-.061.196-.029.07-.067.132-.103.197-.027.048-.048.098-.079.144-.073.11-.156.212-.248.305L25.05 31.475a1.983 1.983 0 0 1-2.804-2.804L32.88 18.038H1.982a1.983 1.983 0 0 1 0-3.964z" fill-rule="nonzero"/></symbol><symbol id="shape-close" viewBox="0 0 22 22"><title>Page 1</title><g stroke="#303343" stroke-width="2" fill-rule="evenodd"><path d="M1 1l20 20M1 21L21 1"/></g></symbol><symbol id="shape-cluster" viewBox="0 0 162 120"><title>Group 6</title><g fill-rule="nonzero" fill-opacity=".2"><ellipse cx="15.571" cy="56.726" rx="1.673" ry="1.673"/><ellipse cx="135.36" cy="3.635" rx="3.635" ry="3.635"/><ellipse cx="3.561" cy="38.191" rx="3.561" ry="3.56"/><ellipse cx="32.132" cy="116.428" rx="3.561" ry="3.56"/><ellipse cx="159.553" cy="36.37" rx="2.283" ry="2.283"/><ellipse cx="17.245" cy="104.478" rx="1.368" ry="1.368"/><ellipse cx="152.167" cy="49.935" rx="1.368" ry="1.368"/></g></symbol><symbol id="shape-code" viewBox="0 0 20 15"><title>code</title><path d="M13.197.39l-2.084 2.083 4.862 4.862-4.862 4.862 2.084 2.084 6.251-6.946-6.25-6.946zm-6.946 0L0 7.334l6.251 6.946 2.084-2.084-4.862-4.862 4.862-4.862L6.251.389z" fill-rule="nonzero"/></symbol><symbol id="shape-github-logo" viewBox="0 0 74 20"><title>gh-logo-white</title><g fill-rule="nonzero"><path d="M14.22 8.508H8.017a.29.29 0 0 0-.289.288v3.02c0 .16.13.289.289.29h2.419v3.753s-.543.184-2.05.184c-1.773 0-4.25-.645-4.25-6.065S6.72 3.84 9.14 3.84c2.095 0 3 .367 3.573.545a.292.292 0 0 0 .347-.284l.693-2.918a.269.269 0 0 0-.111-.225C13.408.792 11.986 0 8.39 0 4.25 0 0 1.755 0 10.188c0 8.432 4.864 9.692 8.964 9.692 3.395 0 5.453-1.445 5.453-1.445a.248.248 0 0 0 .094-.219V8.798a.287.287 0 0 0-.291-.29zM46.196 1.02a.287.287 0 0 0-.28-.3h-3.484a.292.292 0 0 0-.307.3v6.713H36.68V1.02a.287.287 0 0 0-.289-.29h-3.485a.292.292 0 0 0-.297.29v18.19a.29.29 0 0 0 .29.292h3.484a.292.292 0 0 0 .289-.292V11.43h5.453v7.783a.29.29 0 0 0 .289.292h3.5a.292.292 0 0 0 .29-.292L46.196 1.02z"/><ellipse cx="18.559" cy="3.4" rx="2.253" ry="2.265"/><path d="M20.562 15.371V6.97a.29.29 0 0 0-.289-.29h-3.485a.333.333 0 0 0-.303.325v12.04c0 .354.221.46.508.46h3.14c.345 0 .43-.167.43-.465V15.37zM59.47 6.708h-3.466a.292.292 0 0 0-.289.292v8.918a3.93 3.93 0 0 1-2.13.641c-1.25 0-1.582-.565-1.582-1.783V6.998a.29.29 0 0 0-.29-.292h-3.517a.292.292 0 0 0-.289.292v8.367c0 3.619 2.026 4.504 4.813 4.504 2.286 0 4.13-1.257 4.13-1.257.03.25.073.496.128.741a.306.306 0 0 0 .254.157h2.239a.29.29 0 0 0 .289-.29V6.998a.29.29 0 0 0-.29-.29zM68.947 6.298a6.54 6.54 0 0 0-3.308.875V1.02a.287.287 0 0 0-.29-.29h-3.503a.29.29 0 0 0-.289.29v18.19a.29.29 0 0 0 .29.292h2.43a.29.29 0 0 0 .255-.155c.07-.276.12-.556.147-.839 0 0 1.435 1.351 4.145 1.351 3.184 0 5.01-1.608 5.01-7.218 0-5.61-2.909-6.343-4.887-6.343zM67.58 16.551a4.17 4.17 0 0 1-2.017-.58v-5.767c.55-.314 1.16-.51 1.791-.58 1.249-.112 2.46.264 2.46 3.23-.01 3.132-.553 3.75-2.234 3.7v-.003zM30.602 6.678h-2.62V3.23c0-.131-.067-.204-.219-.204h-3.575c-.139 0-.205.06-.205.193v3.572s-1.79.43-1.91.465a.29.29 0 0 0-.205.278V9.78a.29.29 0 0 0 .27.283h1.845v5.384c0 4 2.819 4.392 4.715 4.392a8.004 8.004 0 0 0 2.08-.341.27.27 0 0 0 .165-.261v-2.461a.295.295 0 0 0-.29-.29c-.151 0-.543.06-.944.06-1.288 0-1.724-.595-1.724-1.366v-5.117h2.62a.29.29 0 0 0 .288-.29V6.97a.287.287 0 0 0-.29-.291z"/></g></symbol><symbol id="shape-github" viewBox="0 0 24 24"><path d="M12 0C5.374 0 0 5.373 0 12c0 5.302 3.438 9.8 8.207 11.387.599.111.793-.261.793-.577v-2.234c-3.338.726-4.033-1.416-4.033-1.416-.546-1.387-1.333-1.756-1.333-1.756-1.089-.745.083-.729.083-.729 1.205.084 1.839 1.237 1.839 1.237 1.07 1.834 2.807 1.304 3.492.997.107-.775.418-1.305.762-1.604-2.665-.305-5.467-1.334-5.467-5.931 0-1.311.469-2.381 1.236-3.221-.124-.303-.535-1.524.117-3.176 0 0 1.008-.322 3.301 1.23A11.509 11.509 0 0 1 12 5.803c1.02.005 2.047.138 3.006.404 2.291-1.552 3.297-1.23 3.297-1.23.653 1.653.242 2.874.118 3.176.77.84 1.235 1.911 1.235 3.221 0 4.609-2.807 5.624-5.479 5.921.43.372.823 1.102.823 2.222v3.293c0 .319.192.694.801.576C20.566 21.797 24 17.3 24 12c0-6.627-5.373-12-12-12z"/></symbol><symbol id="shape-heart" viewBox="0 0 18 16"><title>heart</title><path d="M15.948 1.39C15.226.513 14.21.07 12.892 0c-1.348 0-2.348.583-3.056 1.39-.709.805-1.084 1.277-1.112 1.388-.028-.11-.389-.583-1.111-1.389C6.89.583 5.988 0 4.557 0 3.237.07 2.209.528 1.5 1.39.778 2.236.417 3.166.389 4.167c0 .722.125 2.111.93 3.709.807 1.597 3.252 4.084 7.405 7.404 4.14-3.32 6.627-5.793 7.418-7.404.792-1.612.917-3.015.917-3.71-.028-1-.389-1.93-1.111-2.806v.028z" fill-rule="nonzero"/></symbol><symbol id="shape-twitter" viewBox="0 0 25 24"><title>Fill 1</title><path d="M18.2 9.6c.2 4-2.8 8.5-8.2 8.5-1.6 0-3.1-.5-4.4-1.3 1.5.2 3.1-.2 4.3-1.2-1.3 0-2.3-.9-2.7-2 .5.1.9.1 1.3 0-1.4-.3-2.3-1.5-2.3-2.9.4.2.8.3 1.3.4-1.3-.9-1.6-2.5-.9-3.8 1.4 1.7 3.5 2.9 5.9 3-.4-1.8.9-3.5 2.8-3.5.8 0 1.6.3 2.1.9.6-.1 1.2-.4 1.8-.7-.2.7-.7 1.2-1.3 1.6.6-.1 1.1-.2 1.7-.5-.4.6-.9 1.1-1.4 1.5M12.1 0C5.4 0 0 5.4 0 12s5.4 12 12.1 12 12.1-5.4 12.1-12S18.7 0 12.1 0"/></symbol></svg>